<svg width="1200" height="1200" viewBox="0 0 1200 1200" fill="none" xmlns="http://www.w3.org/2000/svg">
<g filter="url(#filter0_d_23_58)">
<rect x="100" y="100" width="1000" height="1000" rx="200" fill="#DBDBDB"/>
<rect x="100" y="100" width="1000" height="1000" rx="200" fill="url(#paint0_linear_23_58)"/>
</g>
<g filter="url(#filter1_d_23_58)">
<path fill-rule="evenodd" clip-rule="evenodd" d="M549.778 937.965L549.779 937.965L995.696 406.541C1006.5 393.67 1011.9 387.235 1013.52 380.217C1014.94 374.044 1014.38 367.578 1011.9 361.747C1009.09 355.117 1002.65 349.717 989.78 338.917L890.473 255.589C877.603 244.789 871.167 239.389 864.149 237.769C857.976 236.344 851.511 236.909 845.679 239.385C839.049 242.199 833.649 248.634 822.849 261.505L491.755 656.088L355.518 541.567C342.657 530.756 336.226 525.35 329.212 523.726C323.042 522.297 316.579 522.86 310.749 525.333C304.121 528.145 298.721 534.58 287.921 547.451L204.593 646.758C193.793 659.629 188.393 666.064 186.771 673.084C185.344 679.259 185.907 685.728 188.38 691.563C191.19 698.197 197.621 703.603 210.482 714.414L364.82 844.149C368.512 848.524 374.241 853.331 382.847 860.552L382.847 860.552L382.848 860.553L482.155 943.881L482.155 943.882C495.026 954.681 501.461 960.081 508.479 961.701C514.652 963.126 521.117 962.561 526.949 960.085C533.579 957.271 538.979 950.836 549.778 937.965Z" fill="url(#paint1_linear_23_58)"/>
</g>
<defs>
<filter id="filter0_d_23_58" x="92" y="100" width="1016" height="1018" filterUnits="userSpaceOnUse" color-interpolation-filters="sRGB">
<feFlood flood-opacity="0" result="BackgroundImageFix"/>
<feColorMatrix in="SourceAlpha" type="matrix" values="0 0 0 0 0 0 0 0 0 0 0 0 0 0 0 0 0 0 127 0" result="hardAlpha"/>
<feOffset dy="10"/>
<feGaussianBlur stdDeviation="4"/>
<feColorMatrix type="matrix" values="0 0 0 0 0 0 0 0 0 0 0 0 0 0 0 0 0 0 0.25 0"/>
<feBlend mode="normal" in2="BackgroundImageFix" result="effect1_dropShadow_23_58"/>
<feBlend mode="normal" in="SourceGraphic" in2="effect1_dropShadow_23_58" result="shape"/>
</filter>
<filter id="filter1_d_23_58" x="182" y="237" width="836.285" height="733.47" filterUnits="userSpaceOnUse" color-interpolation-filters="sRGB">
<feFlood flood-opacity="0" result="BackgroundImageFix"/>
<feColorMatrix in="SourceAlpha" type="matrix" values="0 0 0 0 0 0 0 0 0 0 0 0 0 0 0 0 0 0 127 0" result="hardAlpha"/>
<feOffset dy="4"/>
<feGaussianBlur stdDeviation="2"/>
<feColorMatrix type="matrix" values="0 0 0 0 0 0 0 0 0 0 0 0 0 0 0 0 0 0 0.25 0"/>
<feBlend mode="normal" in2="BackgroundImageFix" result="effect1_dropShadow_23_58"/>
<feBlend mode="normal" in="SourceGraphic" in2="effect1_dropShadow_23_58" result="shape"/>
</filter>
<linearGradient id="paint0_linear_23_58" x1="600" y1="100" x2="600" y2="1100" gradientUnits="userSpaceOnUse">
<stop offset="0.589017" stop-color="white"/>
<stop offset="1" stop-color="white" stop-opacity="0"/>
</linearGradient>
<linearGradient id="paint1_linear_23_58" x1="946.612" y1="277.235" x2="406.613" y2="875.735" gradientUnits="userSpaceOnUse">
<stop stop-color="#FF0000"/>
<stop offset="1" stop-color="#6720FF"/>
</linearGradient>
</defs>
</svg>
