<svg width="1024" height="1030" viewBox="0 0 1024 1030" fill="none" xmlns="http://www.w3.org/2000/svg">
<g filter="url(#filter0_d_23_58)">
<rect x="12" y="12" width="1000" height="1000" rx="200" fill="#DBDBDB"/>
<rect x="12" y="12" width="1000" height="1000" rx="200" fill="url(#paint0_linear_23_58)"/>
</g>
<g filter="url(#filter1_d_23_58)">
<path fill-rule="evenodd" clip-rule="evenodd" d="M461.778 849.965L461.779 849.965L907.696 318.541C918.496 305.67 923.896 299.235 925.516 292.217C926.941 286.044 926.376 279.578 923.9 273.747C921.086 267.117 914.651 261.717 901.78 250.917L802.473 167.589C789.603 156.789 783.167 151.389 776.149 149.769C769.976 148.344 763.511 148.909 757.679 151.385C751.049 154.199 745.649 160.634 734.849 173.505L403.755 568.088L267.518 453.567C254.657 442.756 248.226 437.35 241.212 435.726C235.042 434.297 228.579 434.86 222.749 437.333C216.121 440.145 210.721 446.58 199.921 459.451L116.593 558.758C105.793 571.629 100.393 578.064 98.771 585.084C97.3443 591.259 97.9073 597.728 100.38 603.563C103.19 610.197 109.621 615.603 122.482 626.414L276.82 756.149C280.512 760.524 286.241 765.331 294.847 772.552L294.847 772.552L294.848 772.553L394.155 855.881L394.155 855.882C407.026 866.681 413.461 872.081 420.479 873.701C426.652 875.126 433.117 874.561 438.949 872.085C445.579 869.271 450.979 862.836 461.778 849.965Z" fill="url(#paint1_linear_23_58)"/>
</g>
<defs>
<filter id="filter0_d_23_58" x="4" y="12" width="1016" height="1018" filterUnits="userSpaceOnUse" color-interpolation-filters="sRGB">
<feFlood flood-opacity="0" result="BackgroundImageFix"/>
<feColorMatrix in="SourceAlpha" type="matrix" values="0 0 0 0 0 0 0 0 0 0 0 0 0 0 0 0 0 0 127 0" result="hardAlpha"/>
<feOffset dy="10"/>
<feGaussianBlur stdDeviation="4"/>
<feColorMatrix type="matrix" values="0 0 0 0 0 0 0 0 0 0 0 0 0 0 0 0 0 0 0.25 0"/>
<feBlend mode="normal" in2="BackgroundImageFix" result="effect1_dropShadow_23_58"/>
<feBlend mode="normal" in="SourceGraphic" in2="effect1_dropShadow_23_58" result="shape"/>
</filter>
<filter id="filter1_d_23_58" x="94" y="149" width="836.285" height="733.47" filterUnits="userSpaceOnUse" color-interpolation-filters="sRGB">
<feFlood flood-opacity="0" result="BackgroundImageFix"/>
<feColorMatrix in="SourceAlpha" type="matrix" values="0 0 0 0 0 0 0 0 0 0 0 0 0 0 0 0 0 0 127 0" result="hardAlpha"/>
<feOffset dy="4"/>
<feGaussianBlur stdDeviation="2"/>
<feColorMatrix type="matrix" values="0 0 0 0 0 0 0 0 0 0 0 0 0 0 0 0 0 0 0.25 0"/>
<feBlend mode="normal" in2="BackgroundImageFix" result="effect1_dropShadow_23_58"/>
<feBlend mode="normal" in="SourceGraphic" in2="effect1_dropShadow_23_58" result="shape"/>
</filter>
<linearGradient id="paint0_linear_23_58" x1="512" y1="12" x2="512" y2="1012" gradientUnits="userSpaceOnUse">
<stop offset="0.589017" stop-color="white"/>
<stop offset="1" stop-color="white" stop-opacity="0"/>
</linearGradient>
<linearGradient id="paint1_linear_23_58" x1="858.612" y1="189.235" x2="318.613" y2="787.735" gradientUnits="userSpaceOnUse">
<stop stop-color="#FF0000"/>
<stop offset="1" stop-color="#6720FF"/>
</linearGradient>
</defs>
</svg>
