<?xml version="1.0" encoding="UTF-8" standalone="no"?>
<!DOCTYPE svg PUBLIC "-//W3C//DTD SVG 1.1//EN" "http://www.w3.org/Graphics/SVG/1.1/DTD/svg11.dtd">
<svg version="1.1" xmlns="http://www.w3.org/2000/svg" xmlns:xlink="http://www.w3.org/1999/xlink" preserveAspectRatio="xMidYMid meet" viewBox="210.888223552894 210.53332189884637 204.00000000000003 204.00000000000003" width="50" height="50"><defs><path d="M330.86 360.02C318.94 376.9 311.49 387.45 308.51 391.67C305.47 395.97 299.52 397.01 295.21 393.99C280.16 383.45 240.43 355.64 224.79 344.68C222.12 342.81 221.48 339.13 223.36 336.47C228.24 329.55 238.68 314.77 243.36 308.14C245.81 304.67 250.61 303.83 254.08 306.27C264.32 313.43 289.91 331.35 330.86 360.02Z" id="f3HJJB4fo5"></path><path d="M211.89 211.53L411.89 211.53L411.89 411.53L211.89 411.53L211.89 211.53Z" id="afC0Ng4ZH"></path><path d="M307.81 392.41C305.2 396.14 300.09 397.08 296.32 394.54C291.65 391.38 279.96 383.49 261.27 370.87C313.89 295.7 346.78 248.72 359.94 229.93C362.02 226.96 366.09 226.21 369.09 228.24C376.38 233.16 393.21 244.52 400.59 249.51C403.3 251.34 403.98 255.04 402.11 257.72C382.31 286 327.35 364.5 307.81 392.41Z" id="a1fU8jC0WU"></path></defs><g><g><g><filter id="shadow14712568" x="212.28" y="294.87" width="129.58" height="112.85" filterUnits="userSpaceOnUse" primitiveUnits="userSpaceOnUse"><feFlood></feFlood><feComposite in2="SourceAlpha" operator="in"></feComposite><feGaussianBlur stdDeviation="1"></feGaussianBlur><feOffset dx="-1" dy="2" result="afterOffset"></feOffset><feFlood flood-color="#000000" flood-opacity="0.5"></feFlood><feComposite in2="afterOffset" operator="in"></feComposite><feMorphology operator="dilate" radius="1"></feMorphology><feComposite in2="SourceAlpha" operator="out"></feComposite></filter><path d="M330.86 360.02C318.94 376.9 311.49 387.45 308.51 391.67C305.47 395.97 299.52 397.01 295.21 393.99C280.16 383.45 240.43 355.64 224.79 344.68C222.12 342.81 221.48 339.13 223.36 336.47C228.24 329.55 238.68 314.77 243.36 308.14C245.81 304.67 250.61 303.83 254.08 306.27C264.32 313.43 289.91 331.35 330.86 360.02Z" id="b5d9bP3dGn" fill="white" fill-opacity="1" filter="url(#shadow14712568)"></path></g><use xlink:href="#f3HJJB4fo5" opacity="1" fill="#45b9ef" fill-opacity="0.6"></use></g><g><use xlink:href="#afC0Ng4ZH" opacity="1" fill="#ffffff" fill-opacity="0"></use></g><g><g><filter id="shadow8488609" x="252.27" y="218.1" width="160.9" height="187.87" filterUnits="userSpaceOnUse" primitiveUnits="userSpaceOnUse"><feFlood></feFlood><feComposite in2="SourceAlpha" operator="in"></feComposite><feGaussianBlur stdDeviation="1"></feGaussianBlur><feOffset dx="1" dy="1" result="afterOffset"></feOffset><feFlood flood-color="#000000" flood-opacity="0.56"></feFlood><feComposite in2="afterOffset" operator="in"></feComposite><feMorphology operator="dilate" radius="1"></feMorphology><feComposite in2="SourceAlpha" operator="out"></feComposite></filter><path d="M307.81 392.41C305.2 396.14 300.09 397.08 296.32 394.54C291.65 391.38 279.96 383.49 261.27 370.87C313.89 295.7 346.78 248.72 359.94 229.93C362.02 226.96 366.09 226.21 369.09 228.24C376.38 233.16 393.21 244.52 400.59 249.51C403.3 251.34 403.98 255.04 402.11 257.72C382.31 286 327.35 364.5 307.81 392.41Z" id="cbw8Kwnec" fill="white" fill-opacity="1" filter="url(#shadow8488609)"></path></g><use xlink:href="#a1fU8jC0WU" opacity="1" fill="#995de5" fill-opacity="0.6"></use></g></g></svg>