<svg width="734" height="697" viewBox="0 0 734 697" fill="none" xmlns="http://www.w3.org/2000/svg">
<g filter="url(#filter0_d)">
<path d="M355.034 649.678C345.397 663.441 340.578 670.322 334.219 673.704C328.625 676.678 322.233 677.805 315.96 676.923C308.827 675.921 301.946 671.102 288.183 661.465L202.991 601.813C189.228 592.176 182.346 587.358 178.965 580.999C175.991 575.405 174.864 569.013 175.746 562.739C176.748 555.607 181.566 548.725 191.203 534.962L537.644 40.1946C547.281 26.4316 552.099 19.55 558.458 16.1688C564.052 13.1945 570.444 12.0674 576.718 12.9491C583.85 13.9515 590.732 18.77 604.495 28.407L689.686 88.0589C703.449 97.6959 710.331 102.514 713.712 108.874C716.687 114.468 717.814 120.859 716.932 127.133C715.929 134.265 711.111 141.147 701.474 154.91L355.034 649.678Z" fill="#995DE5" fill-opacity="0.6"/>
</g>
<g filter="url(#filter1_d)">
<path d="M39.2952 486.397C25.5406 476.747 18.6633 471.923 15.2852 465.559C12.3137 459.961 11.189 453.566 12.0722 447.29C13.0762 440.156 17.8947 433.274 27.5317 419.511L87.1836 334.319C96.8206 320.556 101.639 313.675 107.997 310.296C113.589 307.324 119.979 306.2 126.25 307.086C133.379 308.093 140.256 312.917 154.01 322.566L402.88 497.152C416.634 506.801 423.512 511.625 426.89 517.989C429.861 523.587 430.986 529.982 430.103 536.258C429.099 543.392 424.28 550.274 414.643 564.037L354.991 649.229C345.354 662.992 340.536 669.873 334.178 673.252C328.586 676.225 322.196 677.348 315.925 676.463C308.796 675.456 301.919 670.631 288.164 660.982L39.2952 486.397Z" fill="#45B9EF" fill-opacity="0.6"/>
</g>
<defs>
<filter id="filter0_d" x="159.672" y="0.87532" width="573.334" height="696.122" filterUnits="userSpaceOnUse" color-interpolation-filters="sRGB">
<feFlood flood-opacity="0" result="BackgroundImageFix"/>
<feColorMatrix in="SourceAlpha" type="matrix" values="0 0 0 0 0 0 0 0 0 0 0 0 0 0 0 0 0 0 127 0"/>
<feOffset dy="4"/>
<feGaussianBlur stdDeviation="2"/>
<feColorMatrix type="matrix" values="0 0 0 0 0 0 0 0 0 0 0 0 0 0 0 0 0 0 0.25 0"/>
<feBlend mode="normal" in2="BackgroundImageFix" result="effect1_dropShadow"/>
<feBlend mode="normal" in="SourceGraphic" in2="effect1_dropShadow" result="shape"/>
</filter>
<filter id="filter1_d" x="7.77905" y="306.791" width="426.617" height="377.966" filterUnits="userSpaceOnUse" color-interpolation-filters="sRGB">
<feFlood flood-opacity="0" result="BackgroundImageFix"/>
<feColorMatrix in="SourceAlpha" type="matrix" values="0 0 0 0 0 0 0 0 0 0 0 0 0 0 0 0 0 0 127 0"/>
<feOffset dy="4"/>
<feGaussianBlur stdDeviation="2"/>
<feColorMatrix type="matrix" values="0 0 0 0 0 0 0 0 0 0 0 0 0 0 0 0 0 0 0.25 0"/>
<feBlend mode="normal" in2="BackgroundImageFix" result="effect1_dropShadow"/>
<feBlend mode="normal" in="SourceGraphic" in2="effect1_dropShadow" result="shape"/>
</filter>
</defs>
</svg>
